<?xml version="1.0" encoding="UTF-8"?>
<!DOCTYPE svg PUBLIC "-//W3C//DTD SVG 1.1//EN" "http://www.w3.org/Graphics/SVG/1.1/DTD/svg11.dtd">
<svg xmlns="http://www.w3.org/2000/svg" version="1.1" width="762px" height="105px" style="shape-rendering:geometricPrecision; text-rendering:geometricPrecision; image-rendering:optimizeQuality; fill-rule:evenodd; clip-rule:evenodd" xmlns:xlink="http://www.w3.org/1999/xlink">
<g><path style="opacity:0.922" fill="#292a29" d="M 93.5,0.5 C 105.99,-1.17734 111.157,4.15599 109,16.5C 102.772,24.8765 95.7719,25.5432 88,18.5C 84.6965,10.6977 86.5298,4.69766 93.5,0.5 Z"/></g>
<g><path style="opacity:0.922" fill="#292a29" d="M 617.5,0.5 C 629.99,-1.17734 635.157,4.15599 633,16.5C 626.772,24.8765 619.772,25.5432 612,18.5C 608.696,10.6977 610.53,4.69766 617.5,0.5 Z"/></g>
<g><path style="opacity:0.955" fill="#292a29" d="M 20.5,8.5 C 29.8393,8.33355 39.1726,8.50021 48.5,9C 67.1465,10.9626 75.3131,21.1293 73,39.5C 71.2621,43.2413 68.7621,46.408 65.5,49C 76.5747,55.8744 80.408,65.7077 77,78.5C 72.6527,89.603 64.486,95.7697 52.5,97C 38.0901,98.6949 23.7568,98.1949 9.5,95.5C 8.50018,67.1745 8.16685,38.8412 8.5,10.5C 12.6643,10.0443 16.6643,9.37766 20.5,8.5 Z M 28.5,25.5 C 35.5888,25.1156 42.5888,25.6156 49.5,27C 52.3661,28.3929 53.6994,30.7262 53.5,34C 53.0723,40.0899 49.7389,43.0899 43.5,43C 38.5111,43.4993 33.5111,43.6659 28.5,43.5C 28.5,37.5 28.5,31.5 28.5,25.5 Z M 28.5,59.5 C 36.253,59.1039 43.9196,59.6039 51.5,61C 58.5325,65.8464 59.1992,71.5131 53.5,78C 45.3594,81.0451 37.0261,81.8784 28.5,80.5C 28.5,73.5 28.5,66.5 28.5,59.5 Z"/></g>
<g><path style="opacity:0.959" fill="#292a29" d="M 179.5,9.5 C 186.2,9.16998 192.866,9.50331 199.5,10.5C 207.548,26.5943 215.048,42.9276 222,59.5C 228.952,42.9276 236.452,26.5943 244.5,10.5C 250.807,9.33608 257.141,9.16941 263.5,10C 267.4,38.6551 269.733,67.4884 270.5,96.5C 263.833,96.5 257.167,96.5 250.5,96.5C 250.189,78.1448 249.356,59.8115 248,41.5C 241.833,55.8333 235.667,70.1667 229.5,84.5C 224.208,85.4948 218.875,85.8282 213.5,85.5C 208.085,71.2559 202.085,57.2559 195.5,43.5C 193.835,61.1257 192.835,78.7924 192.5,96.5C 185.833,96.5 179.167,96.5 172.5,96.5C 173.557,67.3725 175.89,38.3725 179.5,9.5 Z"/></g>
<g><path style="opacity:0.95" fill="#292a29" d="M 138.5,10.5 C 140.459,16.7496 141.126,23.4163 140.5,30.5C 147.833,30.5 155.167,30.5 162.5,30.5C 162.5,35.8333 162.5,41.1667 162.5,46.5C 155.167,46.5 147.833,46.5 140.5,46.5C 140.334,55.8393 140.5,65.1726 141,74.5C 142.493,79.6731 145.993,82.0065 151.5,81.5C 154.967,81.4663 158.3,80.7997 161.5,79.5C 163.682,84.5625 165.015,89.8958 165.5,95.5C 157.361,98.1294 149.028,98.9627 140.5,98C 127.952,95.7828 121.452,88.2828 121,75.5C 120.5,54.836 120.333,34.1694 120.5,13.5C 126.699,12.9114 132.699,11.9114 138.5,10.5 Z"/></g>
<g><path style="opacity:0.945" fill="#292a29" d="M 513.5,10.5 C 515.459,16.7496 516.126,23.4163 515.5,30.5C 522.833,30.5 530.167,30.5 537.5,30.5C 537.5,35.8333 537.5,41.1667 537.5,46.5C 530.167,46.5 522.833,46.5 515.5,46.5C 515.074,56.9122 515.574,67.2456 517,77.5C 518.214,79.0488 519.714,80.2155 521.5,81C 526.972,81.5832 532.305,81.2499 537.5,80C 538.981,85.046 539.981,90.2127 540.5,95.5C 532.361,98.1294 524.028,98.9627 515.5,98C 502.545,95.6188 496.045,87.7854 496,74.5C 495.5,54.1694 495.333,33.8361 495.5,13.5C 501.699,12.9114 507.699,11.9114 513.5,10.5 Z"/></g>
<g><path style="opacity:0.948" fill="#292a29" d="M 305.5,28.5 C 333.229,27.3956 346.395,40.7289 345,68.5C 341.317,91.6065 327.817,101.44 304.5,98C 292.441,94.9414 284.608,87.4414 281,75.5C 276.366,58.2557 280.866,44.0891 294.5,33C 298.157,31.1776 301.824,29.6776 305.5,28.5 Z M 308.5,45.5 C 320.195,45.5327 325.861,51.5327 325.5,63.5C 325.609,71.0523 322.609,76.8856 316.5,81C 307.064,82.2486 301.564,78.0819 300,68.5C 298.128,58.9268 300.962,51.2601 308.5,45.5 Z"/></g>
<g><path style="opacity:0.958" fill="#292a29" d="M 445.5,28.5 C 455.275,27.5236 464.608,29.0236 473.5,33C 478.86,37.2188 482.027,42.7188 483,49.5C 483.5,65.1631 483.667,80.8298 483.5,96.5C 477.167,96.5 470.833,96.5 464.5,96.5C 464.894,81.789 464.394,67.1223 463,52.5C 461.148,47.1391 457.315,44.8058 451.5,45.5C 449.571,45.5396 447.738,45.8729 446,46.5C 445.5,63.1633 445.333,79.83 445.5,96.5C 438.833,96.5 432.167,96.5 425.5,96.5C 425.167,75.1563 425.5,53.8229 426.5,32.5C 432.893,30.8289 439.226,29.4956 445.5,28.5 Z"/></g>
<g><path style="opacity:0.95" fill="#292a29" d="M 561.5,28.5 C 571.619,27.4275 581.286,28.9275 590.5,33C 595.522,36.5438 598.356,41.3771 599,47.5C 599.5,63.4965 599.667,79.4965 599.5,95.5C 585.577,98.4859 571.577,98.9859 557.5,97C 544.094,92.0235 539.261,82.5235 543,68.5C 546.176,61.331 551.676,57.1644 559.5,56C 566.492,55.5004 573.492,55.3337 580.5,55.5C 579.867,48.0669 575.7,44.4002 568,44.5C 562.102,45.2157 556.269,46.2157 550.5,47.5C 549.054,42.1879 548.721,36.8546 549.5,31.5C 553.582,30.3108 557.582,29.3108 561.5,28.5 Z M 568.5,68.5 C 572.24,68.2408 575.906,68.5741 579.5,69.5C 580.492,73.7828 580.826,78.1161 580.5,82.5C 575.821,82.6658 571.155,82.4992 566.5,82C 561.466,79.8516 560.299,76.3516 563,71.5C 564.876,70.3913 566.709,69.3913 568.5,68.5 Z"/></g>
<g><path style="opacity:0.964" fill="#292a29" d="M 664.5,28.5 C 675.672,27.0336 686.005,29.2003 695.5,35C 700.362,40.9139 702.862,47.7472 703,55.5C 703.5,69.1626 703.667,82.8293 703.5,96.5C 696.833,96.5 690.167,96.5 683.5,96.5C 683.667,82.8293 683.5,69.1626 683,55.5C 680.695,46.0951 674.862,43.0951 665.5,46.5C 664.501,63.1533 664.167,79.82 664.5,96.5C 658.167,96.5 651.833,96.5 645.5,96.5C 645.333,75.1641 645.5,53.8307 646,32.5C 652.2,30.8283 658.367,29.4949 664.5,28.5 Z"/></g>
<g><path style="opacity:0.987" fill="#292a29" d="M 88.5,30.5 C 94.8333,30.5 101.167,30.5 107.5,30.5C 107.5,52.5 107.5,74.5 107.5,96.5C 101.167,96.5 94.8333,96.5 88.5,96.5C 88.5,74.5 88.5,52.5 88.5,30.5 Z"/></g>
<g><path style="opacity:0.948" fill="#292a29" d="M 354.5,30.5 C 361.167,30.5 367.833,30.5 374.5,30.5C 374.066,45.5583 374.566,60.5583 376,75.5C 376.833,78.3333 378.667,80.1667 381.5,81C 385.152,81.4986 388.818,81.6653 392.5,81.5C 392.5,64.5 392.5,47.5 392.5,30.5C 399.167,30.5 405.833,30.5 412.5,30.5C 412.667,51.8359 412.5,73.1693 412,94.5C 397.963,98.9374 383.797,99.4374 369.5,96C 359.753,91.3641 354.92,83.5308 355,72.5C 354.5,58.504 354.333,44.504 354.5,30.5 Z"/></g>
<g><path style="opacity:0.987" fill="#292a29" d="M 612.5,30.5 C 618.833,30.5 625.167,30.5 631.5,30.5C 631.5,52.5 631.5,74.5 631.5,96.5C 625.167,96.5 618.833,96.5 612.5,96.5C 612.5,74.5 612.5,52.5 612.5,30.5 Z"/></g>
<g><path style="opacity:0.916" fill="#fe9600" d="M 719.5,74.5 C 732.201,74.2545 737.035,80.2545 734,92.5C 730.268,98.0461 725.101,99.8794 718.5,98C 710.126,93.1297 708.46,86.463 713.5,78C 715.432,76.5415 717.432,75.3748 719.5,74.5 Z"/></g>
</svg>
